<mxfile host="65bd71144e">
    <diagram id="nhNWflpAqMBKpMqvcZDN" name="PÃ¡gina-1">
        <mxGraphModel dx="908" dy="546" grid="1" gridSize="10" guides="1" tooltips="1" connect="1" arrows="1" fold="1" page="1" pageScale="1" pageWidth="1654" pageHeight="2336" math="0" shadow="0">
            <root>
                <mxCell id="0"/>
                <mxCell id="1" parent="0"/>
                <mxCell id="9" value="" style="edgeStyle=none;html=1;" edge="1" parent="1" source="3">
                    <mxGeometry relative="1" as="geometry">
                        <mxPoint x="580" y="340" as="targetPoint"/>
                        <Array as="points">
                            <mxPoint x="580" y="550"/>
                            <mxPoint x="480" y="550"/>
                            <mxPoint x="480" y="290"/>
                            <mxPoint x="580" y="290"/>
                        </Array>
                    </mxGeometry>
                </mxCell>
                <mxCell id="3" value="Inicio" style="ellipse;whiteSpace=wrap;html=1;fillColor=#a20025;fontColor=#ffffff;strokeColor=#6F0000;" parent="1" vertex="1">
                    <mxGeometry x="520" y="100" width="120" height="80" as="geometry"/>
                </mxCell>
                <mxCell id="4" value="N" style="shape=parallelogram;perimeter=parallelogramPerimeter;whiteSpace=wrap;html=1;fixedSize=1;fillColor=#6a00ff;fontColor=#ffffff;strokeColor=#3700CC;" parent="1" vertex="1">
                    <mxGeometry x="520" y="210" width="120" height="60" as="geometry"/>
                </mxCell>
                <mxCell id="5" value="suma = 0&lt;br&gt;i=1|" style="rounded=0;whiteSpace=wrap;html=1;fillColor=#1ba1e2;fontColor=#ffffff;strokeColor=#006EAF;" parent="1" vertex="1">
                    <mxGeometry x="525" y="310" width="110" height="60" as="geometry"/>
                </mxCell>
                <mxCell id="6" value="sumas=suma+i&lt;br&gt;i=i+1" style="rounded=0;whiteSpace=wrap;html=1;fillColor=#1ba1e2;fontColor=#ffffff;strokeColor=#006EAF;" vertex="1" parent="1">
                    <mxGeometry x="515" y="520" width="120" height="60" as="geometry"/>
                </mxCell>
                <mxCell id="10" value="" style="edgeStyle=none;html=1;" edge="1" parent="1" source="2">
                    <mxGeometry relative="1" as="geometry">
                        <mxPoint x="790" y="600" as="targetPoint"/>
                        <Array as="points">
                            <mxPoint x="790" y="440"/>
                        </Array>
                    </mxGeometry>
                </mxCell>
                <mxCell id="2" value="i&amp;lt;=N" style="rhombus;whiteSpace=wrap;html=1;fillColor=#60a917;fontColor=#ffffff;strokeColor=#2D7600;" parent="1" vertex="1">
                    <mxGeometry x="540" y="400" width="80" height="80" as="geometry"/>
                </mxCell>
                <mxCell id="8" value="Fin" style="ellipse;whiteSpace=wrap;html=1;fillColor=#a20025;fontColor=#ffffff;strokeColor=#6F0000;" vertex="1" parent="1">
                    <mxGeometry x="730" y="550" width="120" height="80" as="geometry"/>
                </mxCell>
                <mxCell id="7" value="Suma" style="shape=document;whiteSpace=wrap;html=1;boundedLbl=1;fillColor=#0050ef;fontColor=#ffffff;strokeColor=#001DBC;" vertex="1" parent="1">
                    <mxGeometry x="730" y="400" width="120" height="80" as="geometry"/>
                </mxCell>
            </root>
        </mxGraphModel>
    </diagram>
</mxfile>